<svg version="1.1"
	 xmlns="http://www.w3.org/2000/svg" xmlns:xlink="http://www.w3.org/1999/xlink" xmlns:a="http://ns.adobe.com/AdobeSVGViewerExtensions/3.0/"
	 x="0px" y="0px" width="417.3px" height="256.2px" viewBox="0 0 417.3 256.2"
	 style="overflow:scroll;enable-background:new 0 0 417.3 256.2;" xml:space="preserve">
<style type="text/css">
	.st0{fill:#FFCA00;}
</style>
<defs>
</defs>
<path class="st0" d="M381.6,74c-25.8-2.7-43.7,16.1-54.3,37.8c0,0.1-0.1,0.1-0.1,0.2c-5.1,7-12.5,10.2-20.5,11.6
	c-4.1-15.5-13.7-28.7-31.3-33.8c-11-3.2-26.7-2.1-33.8,8c-8.4,11.9-1.5,27.7,8.4,36.3c10,8.7,24.7,11.3,38.5,11.6
	c-0.7,21.6-10.3,47.9-34.9,44.7c-26.2-3.3-27-42.5-18.6-61.1c5.6-12.2-12.6-23-18.2-10.6c-7.4,16.4-9.3,33.8-5.5,51.3
	c-4.7-0.6-9.7,1.5-11.5,7.2c-2.8,9-9.2,29.4-22.1,19.7c-11.1-8.4-13.2-22.4-14.5-35.3c-0.1-1.4-0.2-2.9-0.4-4.3
	c29.6-14.2,53.2-37.6,63-71.2C233.2,60.9,238,0.4,197.8,0c-34.7-0.3-49.9,45.3-54.1,72.8c-3.5,22.8-4.6,47.3-3.1,71.1
	c-1.8,0.6-3.6,1.2-5.5,1.8c0.4-13-1.8-26-6.2-37.5c-10.2-26.6-36-43.6-64.3-30.1c-13.7,6.6-21.9,17.1-29.4,32.1
	c-1.6-1.9-3.3-3.6-5.2-5.1c-13.9-10.8-28.7-2.4-30,14.2c-0.9,11.5,14.3,13.2,19.4,5.1c1,2.1,2.4,4.1,3.5,6.1
	c2.7,5.1,5.2,10.3,7.6,15.5c4.9,10.9,9.4,22.2,12.7,33.7c1.1,3.9,2,7.9,2.9,11.8c0,1.2,0.3,2.4,0.7,3.6c3.2,16.7,4.1,33.8,3.8,50.9
	c-0.2,13.6,20.8,13.6,21.1,0c0.2-13.2-0.4-26.1-2-38.8c19.1,2.6,38.4-1.5,49.9-15.9c5.3-6.6,9.1-14.4,11.7-22.6
	c3.8-1,7.6-2,11.3-3.3c0.5,3.7,1,7.4,1.7,11.1c3.2,18.5,15.8,42.2,36.9,44.2c20.3,1.9,30.8-15,36.9-31.4c3.2,6.2,7.4,11.7,13.2,15.3
	c31.8,19.9,67.3-2.9,75.2-36.2c1.8-7.5,2.8-15.7,2.8-23.9c2.7-0.5,5.3-1,7.8-1.8c-4.7,23.6-3.1,56.1,16.1,72.5
	c22.9,19.5,43,9.3,68.5-16.3c9.6-9.6-5.5-24.7-14.9-14.9c-10.2,10.6-25.4,26.9-39.5,15.6c-13.2-10.6-12.7-36.1-10-51.1
	c1.4-7.5,3.6-16.4,7.2-24.8c0.3-0.4,1.7-3.9,2.9-6.2c5.2-10,12.6-18.5,22.7-21.7c24.1-7.6,28.7,21.1,25.3,38
	c-2.6,13.2,17.7,18.9,20.3,5.6C420.9,113.1,414,77.5,381.6,74z M105.8,174.5c-8.3,13.1-25.8,16.2-40.3,9.7
	c-2.9-12.7-6.9-25.1-12.1-37.6c-1.7-4.1-3.4-8.6-5.4-13.3C53,120.1,61.2,103.1,69,97.8c5.6-3.8,12.5-5.8,20.1-4.1
	c10.2,2.2,17.5,14.2,20.6,23.3C115.9,134.8,116.2,158,105.8,174.5z M163.4,82.9c1.9-19.4,8.5-50.6,27.9-60
	c25-12.2,17.9,44.3,15.1,54.9c-4.8,17.9-13.8,34.7-28.6,46.3c-5,3.9-10.5,7.4-16.2,10.5C161.1,117.3,161.7,99.9,163.4,82.9z
	 M259.3,111.9c-0.3-1.1-0.1-2.1-0.2-2.2c2.6-1.3,8.7-0.3,10.7,0.4c7,2.3,12.2,7.8,15.3,14.3c-8.2-0.3-16.8-1.7-22.2-7
	C261.4,115.9,259.9,114.1,259.3,111.9z"/>
</svg>